<svg xmlns="http://www.w3.org/2000/svg" version="1.1" xmlns:xlink="http://www.w3.org/1999/xlink" xmlns:svgjs="http://svgjs.dev/svgjs" width="1000" height="1187" viewBox="0 0 1000 1187"><g transform="matrix(1,0,0,1,0.17558999775656048,0.48056680161937493)"><svg viewBox="0 0 208 247" data-background-color="#ffffff" preserveAspectRatio="xMidYMid meet" height="1187" width="1000" xmlns="http://www.w3.org/2000/svg" xmlns:xlink="http://www.w3.org/1999/xlink"><g id="tight-bounds" transform="matrix(1,0,0,1,-0.03652225182759139,-0.09999999999999432)"><svg viewBox="0 0 208.07303920298975 247.2" height="247.2" width="208.07303920298975"><g><svg viewBox="0 0 395.52 469.8953039495716" height="247.2" width="208.07303920298975"><g transform="matrix(1,0,0,1,0,272.1006852185854)"><svg viewBox="0 0 395.52 197.7946187309862" height="197.7946187309862" width="395.52"><g id="textblocktransform"><svg viewBox="0 0 395.52 197.7946187309862" height="197.7946187309862" width="395.52" id="textblock"><g><svg viewBox="0 0 395.52 117.20515943418843" height="117.20515943418843" width="395.52"><g transform="matrix(1,0,0,1,0,0)"><svg width="395.52" viewBox="-15.479999542236328 -46.2400016784668 203.64999389648438 60.35000228881836" height="117.20515943418843" data-palette-color="#1e55b3"><path d="M58.94 2L58.94 2Q58.84 2.98 58.25 3.54 57.67 4.1 56.74 4.1L56.74 4.1Q56.25 4.1 55.81 3.96L55.81 3.96Q54.88 4.69 53.61 5.08 52.34 5.47 51.22 5.86L51.22 5.86Q49.85 5.81 48.54 5.62 47.22 5.42 45.8 5.52L45.8 5.52Q45.31 5.18 44.78 5.08 44.24 4.98 43.68 4.96 43.12 4.93 42.6 4.79 42.09 4.64 41.6 4.1L41.6 4.1 39.16 4.1Q38.82 4.1 38.16 3.78 37.5 3.47 36.69 3.13 35.89 2.78 34.99 2.49 34.08 2.2 33.3 2.2L33.3 2.2 33.01 2.2Q32.47 1.76 31.76 1.54 31.05 1.32 30.32 1.15 29.59 0.98 28.91 0.78 28.22 0.59 27.73 0.24L27.73 0.24Q27.25-0.1 26.61-0.46 25.98-0.83 25.29-0.78L25.29-0.78Q24.37-1.32 23.36-1.71 22.36-2.1 21.34-2.44L21.34-2.44 19.34-3.17Q18.36-3.56 17.38-4.1L17.38-4.1Q17.24-4.05 17.04-4.1 16.85-4.15 16.7-4.15L16.7-4.15Q16.41-4.15 16.36-3.96L16.36-3.96Q16.02-4.3 15.6-4.54 15.19-4.79 14.79-5.13L14.79-5.13Q14.6-5.08 14.43-5.05 14.26-5.03 14.01-5.03L14.01-5.03Q13.57-5.03 13.16-5.13 12.74-5.22 12.35-5.37L12.35-5.37Q11.91-4.39 11.77-3.17 11.62-1.95 11.55-0.66 11.47 0.63 11.38 1.93 11.28 3.22 10.94 4.3L10.94 4.3Q11.04 4.69 11.04 5.08L11.04 5.08 11.04 5.91Q11.04 6.74 11.28 7.23L11.28 7.23Q11.18 7.67 11.11 8.06 11.04 8.45 10.94 8.84L10.94 8.84Q10.99 9.38 11.01 9.84 11.04 10.3 11.04 10.84L11.04 10.84 11.04 11.67Q11.04 12.11 10.94 12.55L10.94 12.55Q10.45 12.84 9.96 13.11 9.47 13.38 8.98 13.77L8.98 13.77Q8.64 13.13 7.81 13.04L7.81 13.04Q7.62 13.28 7.54 13.7 7.47 14.11 7.08 14.11L7.08 14.11Q6.4 13.57 5.96 13.23 5.52 12.89 4.98 12.21L4.98 12.21Q4.93 12.11 4.93 11.96L4.93 11.96Q4.93 11.72 5.03 11.52 5.13 11.33 5.13 11.13L5.13 11.13Q5.13 10.55 4.98 10.11L4.98 10.11Q4.88 9.47 4.83 8.86 4.79 8.25 4.79 7.67L4.79 7.67Q4.79 6.84 4.91 6.05 5.03 5.27 5.37 4.44L5.37 4.44Q5.91 3.03 6.13 1.46 6.35-0.1 6.45-1.68 6.54-3.27 6.57-4.88 6.59-6.49 6.74-7.96L6.74-7.96Q6.4-8.74 5.93-9.2 5.47-9.67 5.47-10.69L5.47-10.69Q5.47-11.62 6.05-12.13 6.64-12.65 7.08-13.38L7.08-13.38Q6.98-13.67 7.23-13.77L7.23-13.77 7.81-18.9Q7.86-19.43 7.98-20.07 8.11-20.7 8.15-21.24L8.15-21.24Q8.25-22.36 8.25-23.44 8.25-24.51 8.35-25.59L8.35-25.59Q8.59-27.98 8.81-30.32 9.03-32.67 9.03-35.01L9.03-35.01Q9.03-36.13 8.96-37.26 8.89-38.38 8.64-39.5L8.64-39.5Q7.81-39.26 6.81-38.99 5.81-38.72 5.13-38.09L5.13-38.09 4.74-38.09Q3.47-38.09 2.37-37.6 1.27-37.11 0.15-36.67L0.15-36.67Q-0.34-36.43-0.83-36.35-1.32-36.28-1.86-36.13L-1.86-36.13Q-2.1-36.08-2.39-35.84-2.69-35.6-2.93-35.5L-2.93-35.5-3.76-35.3Q-4.1-35.21-4.05-34.86-4-34.52-4.3-34.42L-4.3-34.42Q-4.54-34.18-4.98-34.2-5.42-34.23-5.66-34.23L-5.66-34.23-5.86-34.23Q-7.08-33.35-8.23-32.74-9.38-32.13-10.94-31.93L-10.94-31.93-12.01-31.25Q-12.55-30.91-13.23-30.91L-13.23-30.91Q-13.77-30.91-14.11-31.1L-14.11-31.1Q-14.5-31.69-14.72-32.42-14.94-33.15-15.48-33.69L-15.48-33.69Q-15.23-33.94-15.16-34.35-15.09-34.77-14.99-35.11L-14.99-35.11Q-13.53-35.74-12.04-36.33-10.55-36.91-9.18-37.74L-9.18-37.74Q-9.03-37.7-8.74-37.7L-8.74-37.7Q-8.25-37.7-7.86-37.84-7.47-37.99-7.08-38.18-6.69-38.38-6.3-38.53-5.91-38.67-5.37-38.62L-5.37-38.62Q-3.71-39.55-1.86-40.14 0-40.72 1.66-41.75L1.66-41.75Q1.9-41.75 2.08-41.65 2.25-41.55 2.44-41.55L2.44-41.55Q2.64-41.55 2.69-41.6L2.69-41.6Q2.98-41.99 3.47-42.16 3.96-42.33 4.47-42.46 4.98-42.58 5.44-42.8 5.91-43.02 6.05-43.51L6.05-43.51Q6.3-43.31 6.79-43.31L6.79-43.31Q7.62-43.31 8.33-43.65 9.03-43.99 9.86-43.99L9.86-43.99Q10.06-43.99 10.23-43.92 10.4-43.85 10.6-43.85L10.6-43.85Q10.99-43.85 11.01-44.09 11.04-44.34 11.28-44.53L11.28-44.53Q14.26-45.07 17.21-45.51 20.17-45.95 23.19-45.95L23.19-45.95Q23.63-46.24 24.17-46.24L24.17-46.24Q24.71-46.24 25.15-45.95L25.15-45.95Q25.98-46.04 26.81-46.09 27.64-46.14 28.47-46.14L28.47-46.14Q30.37-46.14 32.37-45.9 34.38-45.65 36.35-45.14 38.33-44.63 40.14-43.77 41.94-42.92 43.51-41.75L43.51-41.75Q43.65-41.31 43.9-40.87 44.14-40.43 44.53-40.19L44.53-40.19Q44.53-40.09 44.51-40.04 44.48-39.99 44.48-39.89L44.48-39.89Q44.48-39.36 44.8-38.87 45.12-38.38 45.12-37.7L45.12-37.7Q45.12-37.01 44.9-36.33 44.68-35.64 44.73-34.96L44.73-34.96Q44.19-34.18 43.82-33.54 43.46-32.91 43.36-31.93L43.36-31.93Q42.48-31.05 41.8-30 41.11-28.96 40.41-27.95 39.7-26.95 38.82-26.12 37.94-25.29 36.72-24.8L36.72-24.8Q36.67-24.32 36.33-23.73L36.33-23.73 35.3-23.73Q35.16-23.34 34.81-23.14L34.81-23.14 34.13-22.75Q33.79-22.56 33.57-22.27 33.35-21.97 33.35-21.44L33.35-21.44Q33.25-21.48 33.11-21.48L33.11-21.48Q32.62-21.48 31.96-21 31.3-20.51 30.91-20.21L30.91-20.21Q30.08-19.63 29.22-19.14 28.37-18.65 27.73-17.77L27.73-17.77Q25.78-16.94 24.02-15.84 22.27-14.75 20.21-14.11L20.21-14.11Q19.43-13.28 18.38-12.82 17.33-12.35 16.36-11.82L16.36-11.82 16.36-11.67Q16.36-11.28 16.65-10.91 16.94-10.55 17.33-10.28 17.72-10.01 18.19-9.91 18.65-9.81 18.99-9.91L18.99-9.91Q19.97-9.03 21.24-8.5 22.51-7.96 23.88-7.52 25.24-7.08 26.56-6.59 27.88-6.1 29-5.37L29-5.37 30.18-5.37Q31.3-4.39 32.84-3.91 34.38-3.42 35.79-3.03L35.79-3.03Q36.38-2.49 37.28-2.22 38.18-1.95 39.01-1.95L39.01-1.95 39.31-1.95Q39.5-1.95 39.65-2L39.65-2 39.65-1.9Q39.65-1.66 39.79-1.59 39.94-1.51 40.11-1.49 40.28-1.46 40.45-1.39 40.63-1.32 40.72-1.17L40.72-1.17 41.21-1.17Q42.24-1.17 43.16-0.76 44.09-0.34 45.12-0.34L45.12-0.34Q45.56-0.34 45.8-0.44L45.8-0.44Q46.09-0.34 46.24-0.05 46.39 0.24 46.63 0.44L46.63 0.44Q46.97 0.39 47.27 0.37 47.56 0.34 47.85 0.34L47.85 0.34Q48.93 0.34 49.85 0.59 50.78 0.83 51.76 1.32L51.76 1.32Q53.32 0.63 54.83 0.2 56.35-0.24 58.06-0.24L58.06-0.24 58.06-0.15Q58.06 0.44 58.37 0.95 58.69 1.46 58.94 2ZM40.23-36.96L40.23-36.96Q40.23-37.55 40.01-37.89 39.79-38.23 39.45-38.5 39.11-38.77 38.75-39.01 38.38-39.26 38.09-39.65L38.09-39.65Q36.82-40.04 35.6-40.53 34.38-41.02 33.11-41.36L33.11-41.36Q32.47-41.5 31.84-41.63 31.2-41.75 30.57-41.75L30.57-41.75 29.49-41.75Q29.2-41.8 28.88-41.87 28.56-41.94 28.27-41.99L28.27-41.99Q27.59-42.09 26.93-42.14 26.27-42.19 25.59-42.19L25.59-42.19Q24.32-42.19 23.05-42.09L23.05-42.09 20.51-41.89Q19.97-41.85 19.38-41.85 18.8-41.85 18.31-41.75L18.31-41.75Q18.07-41.7 17.63-41.53 17.19-41.36 16.7-41.19 16.21-41.02 15.75-40.82 15.28-40.63 14.94-40.53L14.94-40.53Q14.99-40.19 14.99-39.84L14.99-39.84 14.99-39.21Q14.99-38.48 14.94-37.74 14.89-37.01 14.75-36.28L14.75-36.28Q14.7-35.99 14.6-35.69 14.5-35.4 14.45-35.11L14.45-35.11Q14.36-34.67 14.36-34.13L14.36-34.13 14.36-33.2Q14.26-32.08 14.21-31.01 14.16-29.93 14.06-28.81L14.06-28.81Q13.77-25.59 13.45-22.41 13.13-19.24 13.04-16.02L13.04-16.02Q14.65-16.36 16.11-17.04 17.58-17.72 18.99-18.53 20.41-19.34 21.83-20.12 23.24-20.9 24.8-21.44L24.8-21.44Q25.2-21.97 25.76-22.31 26.32-22.66 26.71-23.19L26.71-23.19Q27.2-23.19 27.44-23.41 27.69-23.63 28.08-23.73L28.08-23.73Q30.42-25.78 32.86-27.59 35.3-29.39 37.55-31.45L37.55-31.45Q37.74-32.13 38.21-32.79 38.67-33.45 39.11-34.13 39.55-34.81 39.89-35.5 40.23-36.18 40.23-36.96ZM79.93-3.56L79.93-3.56Q79.78-2.88 79.32-2.47 78.85-2.05 78.22-1.81 77.59-1.56 76.93-1.49 76.27-1.42 75.73-1.42L75.73-1.42Q75.49-1.42 75.27-1.44 75.05-1.46 74.8-1.46L74.8-1.46Q74.56-1.46 74.56-1.22 74.56-0.98 74.31-0.88L74.31-0.88Q74.07-0.98 73.83-1.03 73.58-1.07 73.34-1.07L73.34-1.07Q73-1.07 72.68-1.03 72.36-0.98 72.07-0.98L72.07-0.98Q71.68-0.98 71.51-1.07 71.34-1.17 71.21-1.29 71.09-1.42 70.97-1.56 70.85-1.71 70.6-1.81L70.6-1.81Q70.26-1.95 70.04-1.86 69.82-1.76 69.38-2.15L69.38-2.15Q68.8-2.64 68.38-3.34 67.97-4.05 67.58-4.83 67.19-5.62 66.75-6.4 66.31-7.18 65.72-7.76L65.72-7.76 65.33-7.76Q64.45-7.76 64.11-7.03L64.11-7.03Q63.86-7.18 63.62-7.4 63.38-7.62 63.08-7.76L63.08-7.76Q61.96-7.42 60.74-7.18 59.52-6.93 58.3-6.93L58.3-6.93 57.61-6.93Q57.32-6.93 56.98-7.03L56.98-7.03Q56.49-6.84 56.1-6.57 55.71-6.3 55.22-6.3L55.22-6.3Q54.93-6.3 54.54-6.49L54.54-6.49Q54.25-6.49 54.27-6.25 54.29-6.01 53.95-6.01L53.95-6.01 53.51-6.01Q52.83-6.01 52.17-5.96 51.51-5.91 50.83-5.91L50.83-5.91Q49.9-5.91 48.92-6.15L48.92-6.15Q48.68-6.01 48.39-6.01L48.39-6.01Q48.19-5.91 48.09-5.69 48-5.47 47.9-5.3 47.8-5.13 47.63-5 47.46-4.88 47.17-4.93L47.17-4.93Q47.07-4.35 46.68-4 46.29-3.66 46.29-2.98L46.29-2.98Q45.75-2.69 45.41-2.25 45.07-1.81 44.72-1.32 44.38-0.83 44.02-0.39 43.65 0.05 43.11 0.29L43.11 0.29Q42.87 0.59 42.97 1.22L42.97 1.22Q42.43 1.66 41.65 2 40.87 2.34 40.18 2.34L40.18 2.34Q38.77 2.34 38.23 0.83L38.23 0.83Q38.23 0.34 38.3-0.22 38.38-0.78 38.52-1.29 38.67-1.81 38.96-2.22 39.26-2.64 39.79-2.83L39.79-2.83Q39.79-3.27 39.5-3.44 39.21-3.61 39.26-4.05L39.26-4.05Q40.57-4.69 41.55-5.71 42.53-6.74 43.33-7.89 44.14-9.03 44.97-10.21 45.8-11.38 46.82-12.3L46.82-12.3 46.82-13.33Q48.29-14.89 48.73-16.85L48.73-16.85Q49.27-16.94 49.44-17.33 49.61-17.72 49.61-18.26L49.61-18.26Q49.85-18.26 49.92-18.48 50-18.7 50.34-18.6L50.34-18.6Q50.78-19.78 51.32-20.75 51.85-21.73 52.39-22.73 52.93-23.73 53.34-24.8 53.76-25.88 53.95-27.2L53.95-27.2Q54.64-27.25 54.71-27.86 54.78-28.47 54.88-28.96L54.88-28.96Q55.61-29.64 55.98-30.57 56.35-31.49 56.64-32.5 56.93-33.5 57.3-34.5 57.66-35.5 58.35-36.28L58.35-36.28 58.35-36.43Q58.35-36.67 58.15-36.74 57.96-36.82 57.96-37.06L57.96-37.06Q58.01-37.11 58.01-37.16L58.01-37.16Q58.59-37.4 58.88-37.96 59.18-38.53 59.76-38.77L59.76-38.77Q60.79-37.94 61.57-37.77 62.35-37.6 63.62-37.5L63.62-37.5Q64.26-36.82 64.33-35.86 64.4-34.91 64.65-33.98L64.65-33.98Q65.04-32.42 65.5-30.93 65.96-29.44 66.21-27.88L66.21-27.88Q66.35-26.95 66.75-26.12 67.14-25.29 67.28-24.41L67.28-24.41Q67.38-23.73 67.28-22.88 67.19-22.02 67.48-21.39L67.48-21.39 67.82-20.61Q68.06-20.07 68.23-19.48 68.41-18.9 68.55-18.31L68.55-18.31Q68.94-16.85 69.26-15.16 69.58-13.48 70.26-12.11L70.26-12.11Q70.51-11.62 71.02-11.43 71.53-11.23 72.17-11.16 72.8-11.08 73.41-11.11 74.02-11.13 74.46-11.13L74.46-11.13 74.95-11.13Q75.24-11.13 75.53-11.04L75.53-11.04Q75.73-10.64 75.73-10.35L75.73-10.35Q75.73-9.77 75.34-9.42 74.95-9.08 74.95-8.64L74.95-8.64Q74.95-8.4 75.14-8.11L75.14-8.11Q74.95-8.15 74.56-8.15L74.56-8.15Q73.44-8.15 72.36-7.76L72.36-7.76Q72.75-6.93 73.41-6.37 74.07-5.81 74.8-5.32L74.8-5.32Q75.29-5.71 75.83-5.71L75.83-5.71Q76.41-5.71 76.93-5.44 77.44-5.18 78.02-5.18L78.02-5.18Q78.46-5.18 78.66-5.32L78.66-5.32Q79.05-4.88 79.29-4.42 79.54-3.96 79.93-3.56ZM64.65-11.38L64.65-11.38Q64.55-12.21 64.33-12.57 64.11-12.94 63.96-13.48L63.96-13.48Q63.77-14.16 63.69-14.94 63.62-15.72 63.47-16.46L63.47-16.46Q63.13-18.12 62.72-19.78 62.3-21.44 61.67-23L61.67-23Q61.86-23.29 61.86-23.54L61.86-23.54 61.86-23.68Q61.42-24.17 61.23-24.88 61.03-25.59 60.86-26.29 60.69-27 60.42-27.61 60.15-28.22 59.57-28.61L59.57-28.61Q59.42-28.32 59.42-27.93L59.42-27.93Q59.42-27.59 59.49-27.29 59.57-27 59.57-26.66L59.57-26.66Q59.08-26.42 58.86-25.9 58.64-25.39 58.15-25.1L58.15-25.1Q57.76-23.54 57.03-22.14 56.3-20.75 55.49-19.38 54.69-18.02 53.95-16.63 53.22-15.23 52.78-13.72L52.78-13.72Q52.15-13.28 51.93-12.6 51.71-11.91 51.71-11.23L51.71-11.23Q52.15-10.99 52.71-10.96 53.27-10.94 53.81-10.94 54.34-10.94 54.83-10.84 55.32-10.74 55.71-10.35L55.71-10.35Q56.35-10.55 57.1-10.62 57.86-10.69 58.35-11.04L58.35-11.04Q59.32-10.69 60.45-10.69L60.45-10.69Q61.03-10.69 61.59-10.79 62.16-10.89 62.69-11.04L62.69-11.04Q63.13-10.94 63.38-10.72 63.62-10.5 64.11-10.55L64.11-10.55Q64.35-10.74 64.4-10.96 64.45-11.18 64.65-11.38ZM113.81-33.15L113.81-33.15Q113.57-32.71 113.57-32.28 113.57-31.84 113.47-31.4L113.47-31.4Q113.03-31.35 112.59-31.1 112.15-30.86 111.74-30.62 111.32-30.37 110.88-30.15 110.44-29.93 110-29.93L110-29.93Q109.61-29.93 109.27-30.18 108.93-30.42 108.69-30.71L108.69-30.71Q107.81-30.42 106.78-30.4 105.76-30.37 104.71-30.35 103.66-30.32 102.66-30.2 101.66-30.08 100.83-29.64L100.83-29.64Q100.97-29.2 101.04-28.74 101.12-28.27 101.24-27.83 101.36-27.39 101.58-27 101.8-26.61 102.19-26.32L102.19-26.32Q102.19-25.78 102.29-25.34 102.39-24.9 102.39-24.41L102.39-24.41Q103.22-22.56 104.15-20.65 105.07-18.75 105.41-16.7L105.41-16.7Q105.51-16.16 105.78-16.04 106.05-15.92 106.1-15.67L106.1-15.67 106.1-14.06Q106.64-13.48 106.86-12.77 107.08-12.06 107.17-11.3 107.27-10.55 107.32-9.77 107.37-8.98 107.51-8.25L107.51-8.25Q107.22-7.86 106.95-7.42 106.68-6.98 106.68-6.45L106.68-6.45Q106.68-6.01 106.78-5.81L106.78-5.81Q106.25-5.86 106.05-5.52 105.85-5.18 105.76-4.74L105.76-4.74Q104.98-4.2 104.19-3.69 103.41-3.17 102.73-2.49L102.73-2.49Q102.19-2.44 101.78-2.25 101.36-2.05 100.83-1.81L100.83-1.81Q100.29-1.71 99.7-1.71L99.7-1.71 98.63-1.71Q96.97-1.71 95.33-1.88 93.7-2.05 92.04-2.29L92.04-2.29Q91.35-2.83 90.47-3.05 89.59-3.27 88.76-3.37L88.76-3.37Q87.93-3.96 86.81-4.54 85.69-5.13 84.71-5.08L84.71-5.08Q84.42-5.86 83.78-6.15 83.15-6.45 82.47-6.49L82.47-6.49Q82.51-6.64 82.51-6.93L82.51-6.93Q82.51-7.28 82.32-7.45 82.12-7.62 81.88-7.74 81.64-7.86 81.34-7.98 81.05-8.11 80.85-8.25L80.85-8.25Q80.32-8.64 79.93-9.16 79.54-9.67 79.15-10.21 78.75-10.74 78.32-11.23 77.88-11.72 77.34-12.11L77.34-12.11Q77.14-13.23 76.9-14.33 76.66-15.43 76.66-16.55L76.66-16.55Q76.66-16.94 76.9-17.29 77.14-17.63 77.44-17.92 77.73-18.21 78.02-18.55 78.32-18.9 78.41-19.29L78.41-19.29Q79.15-18.95 80.12-18.95L80.12-18.95Q81.2-18.95 82.22-19.26 83.25-19.58 84.37-19.58L84.37-19.58Q84.71-19.58 85-19.51 85.3-19.43 85.59-19.43L85.59-19.43Q85.93-19.43 86.01-19.65 86.08-19.87 86.47-19.87L86.47-19.87Q87.15-19.87 87.64-19.36 88.13-18.85 88.57-18.46L88.57-18.46Q88.52-17.77 88.13-17.48 87.74-17.19 87.5-16.7L87.5-16.7Q86.71-16.65 86.15-16.43 85.59-16.21 85.05-15.94 84.52-15.67 83.93-15.48 83.34-15.28 82.47-15.28L82.47-15.28Q82.17-15.28 81.98-14.84 81.78-14.4 81.54-14.21L81.54-14.21Q81.93-13.82 82.25-13.38 82.56-12.94 82.88-12.52 83.2-12.11 83.64-11.82 84.08-11.52 84.71-11.38L84.71-11.38Q84.81-10.99 85.03-10.77 85.25-10.55 85.4-10.21L85.4-10.21Q86.52-9.81 87.45-9.3 88.37-8.79 89.3-8.33 90.23-7.86 91.21-7.52 92.18-7.18 93.45-7.03L93.45-7.03Q93.84-6.98 93.79-6.76 93.75-6.54 93.99-6.49L93.99-6.49Q94.18-6.49 94.45-6.52 94.72-6.54 94.92-6.54L94.92-6.54Q95.45-6.54 95.94-6.45 96.43-6.35 96.97-6.15L96.97-6.15Q97.55-6.35 98.46-6.52 99.36-6.69 100.21-7.01 101.07-7.32 101.66-7.84 102.24-8.35 102.24-9.23L102.24-9.23Q102.24-10.74 101.61-12.04 100.97-13.33 100.63-14.75L100.63-14.75Q100.53-15.23 100.48-15.82 100.43-16.41 100.31-16.99 100.19-17.58 99.97-18.04 99.75-18.51 99.26-18.8L99.26-18.8Q99.26-19.19 99.16-19.65 99.07-20.12 98.53-20.21L98.53-20.21Q98.38-21.29 97.97-22.29 97.55-23.29 97.09-24.27 96.63-25.24 96.24-26.27 95.84-27.29 95.75-28.42L95.75-28.42Q94.18-28.42 92.72-28.08 91.25-27.73 89.81-27.27 88.37-26.81 86.91-26.34 85.44-25.88 83.98-25.59L83.98-25.59Q83.1-25.98 82.44-26.51 81.78-27.05 80.71-27.2L80.71-27.2Q80.85-27.83 80.95-28.61 81.05-29.39 81.29-30.13 81.54-30.86 81.98-31.42 82.42-31.98 83.15-32.23L83.15-32.23Q83.93-32.08 84.91-32.08L84.91-32.08Q86.37-32.08 87.74-32.47 89.11-32.86 90.52-33.3L90.52-33.3 90.91-33.3Q92.33-33.3 93.99-33.64 95.65-33.98 96.97-34.57L96.97-34.57Q97.16-34.47 97.14-34.35 97.11-34.23 97.31-34.18L97.31-34.18Q97.85-34.67 98.73-34.77 99.6-34.86 100.56-34.89 101.51-34.91 102.39-35.01 103.27-35.11 103.8-35.6L103.8-35.6Q104.49-35.35 105.24-35.28 106-35.21 106.78-35.21L106.78-35.21Q107.76-35.21 108.71-35.28 109.66-35.35 110.64-35.4L110.64-35.4Q110.35-35.5 110.35-35.64L110.35-35.64Q110.35-35.74 110.44-35.94L110.44-35.94Q111.08-35.79 111.59-35.47 112.1-35.16 112.74-35.06L112.74-35.06Q112.59-34.81 112.59-34.52L112.59-34.52Q112.59-33.98 113.03-33.72 113.47-33.45 113.81-33.15ZM149.02-3.56L149.02-3.56Q148.87-2.88 148.41-2.47 147.94-2.05 147.31-1.81 146.67-1.56 146.01-1.49 145.35-1.42 144.82-1.42L144.82-1.42Q144.57-1.42 144.35-1.44 144.13-1.46 143.89-1.46L143.89-1.46Q143.64-1.46 143.64-1.22 143.64-0.98 143.4-0.88L143.4-0.88Q143.16-0.98 142.91-1.03 142.67-1.07 142.42-1.07L142.42-1.07Q142.08-1.07 141.76-1.03 141.45-0.98 141.15-0.98L141.15-0.98Q140.76-0.98 140.59-1.07 140.42-1.17 140.3-1.29 140.18-1.42 140.06-1.56 139.93-1.71 139.69-1.81L139.69-1.81Q139.35-1.95 139.13-1.86 138.91-1.76 138.47-2.15L138.47-2.15Q137.88-2.64 137.47-3.34 137.05-4.05 136.66-4.83 136.27-5.62 135.83-6.4 135.39-7.18 134.81-7.76L134.81-7.76 134.42-7.76Q133.54-7.76 133.2-7.03L133.2-7.03Q132.95-7.18 132.71-7.4 132.46-7.62 132.17-7.76L132.17-7.76Q131.05-7.42 129.83-7.18 128.61-6.93 127.39-6.93L127.39-6.93 126.7-6.93Q126.41-6.93 126.07-7.03L126.07-7.03Q125.58-6.84 125.19-6.57 124.8-6.3 124.31-6.3L124.31-6.3Q124.02-6.3 123.63-6.49L123.63-6.49Q123.33-6.49 123.36-6.25 123.38-6.01 123.04-6.01L123.04-6.01 122.6-6.01Q121.92-6.01 121.26-5.96 120.6-5.91 119.91-5.91L119.91-5.91Q118.99-5.91 118.01-6.15L118.01-6.15Q117.77-6.01 117.47-6.01L117.47-6.01Q117.28-5.91 117.18-5.69 117.08-5.47 116.98-5.3 116.89-5.13 116.72-5 116.55-4.88 116.25-4.93L116.25-4.93Q116.15-4.35 115.76-4 115.37-3.66 115.37-2.98L115.37-2.98Q114.84-2.69 114.49-2.25 114.15-1.81 113.81-1.32 113.47-0.83 113.1-0.39 112.74 0.05 112.2 0.29L112.2 0.29Q111.96 0.59 112.05 1.22L112.05 1.22Q111.52 1.66 110.73 2 109.95 2.34 109.27 2.34L109.27 2.34Q107.85 2.34 107.32 0.83L107.32 0.83Q107.32 0.34 107.39-0.22 107.46-0.78 107.61-1.29 107.76-1.81 108.05-2.22 108.34-2.64 108.88-2.83L108.88-2.83Q108.88-3.27 108.59-3.44 108.29-3.61 108.34-4.05L108.34-4.05Q109.66-4.69 110.64-5.71 111.61-6.74 112.42-7.89 113.22-9.03 114.06-10.21 114.89-11.38 115.91-12.3L115.91-12.3 115.91-13.33Q117.38-14.89 117.81-16.85L117.81-16.85Q118.35-16.94 118.52-17.33 118.69-17.72 118.69-18.26L118.69-18.26Q118.94-18.26 119.01-18.48 119.08-18.7 119.43-18.6L119.43-18.6Q119.87-19.78 120.4-20.75 120.94-21.73 121.48-22.73 122.01-23.73 122.43-24.8 122.84-25.88 123.04-27.2L123.04-27.2Q123.72-27.25 123.8-27.86 123.87-28.47 123.97-28.96L123.97-28.96Q124.7-29.64 125.07-30.57 125.43-31.49 125.72-32.5 126.02-33.5 126.38-34.5 126.75-35.5 127.43-36.28L127.43-36.28 127.43-36.43Q127.43-36.67 127.24-36.74 127.04-36.82 127.04-37.06L127.04-37.06Q127.09-37.11 127.09-37.16L127.09-37.16Q127.68-37.4 127.97-37.96 128.26-38.53 128.85-38.77L128.85-38.77Q129.88-37.94 130.66-37.77 131.44-37.6 132.71-37.5L132.71-37.5Q133.34-36.82 133.42-35.86 133.49-34.91 133.73-33.98L133.73-33.98Q134.12-32.42 134.59-30.93 135.05-29.44 135.3-27.88L135.3-27.88Q135.44-26.95 135.83-26.12 136.22-25.29 136.37-24.41L136.37-24.41Q136.47-23.73 136.37-22.88 136.27-22.02 136.56-21.39L136.56-21.39 136.91-20.61Q137.15-20.07 137.32-19.48 137.49-18.9 137.64-18.31L137.64-18.31Q138.03-16.85 138.35-15.16 138.66-13.48 139.35-12.11L139.35-12.11Q139.59-11.62 140.1-11.43 140.62-11.23 141.25-11.16 141.89-11.08 142.5-11.11 143.11-11.13 143.55-11.13L143.55-11.13 144.04-11.13Q144.33-11.13 144.62-11.04L144.62-11.04Q144.82-10.64 144.82-10.35L144.82-10.35Q144.82-9.77 144.43-9.42 144.04-9.08 144.04-8.64L144.04-8.64Q144.04-8.4 144.23-8.11L144.23-8.11Q144.04-8.15 143.64-8.15L143.64-8.15Q142.52-8.15 141.45-7.76L141.45-7.76Q141.84-6.93 142.5-6.37 143.16-5.81 143.89-5.32L143.89-5.32Q144.38-5.71 144.91-5.71L144.91-5.71Q145.5-5.71 146.01-5.44 146.53-5.18 147.11-5.18L147.11-5.18Q147.55-5.18 147.75-5.32L147.75-5.32Q148.14-4.88 148.38-4.42 148.63-3.96 149.02-3.56ZM133.73-11.38L133.73-11.38Q133.64-12.21 133.42-12.57 133.2-12.94 133.05-13.48L133.05-13.48Q132.85-14.16 132.78-14.94 132.71-15.72 132.56-16.46L132.56-16.46Q132.22-18.12 131.8-19.78 131.39-21.44 130.75-23L130.75-23Q130.95-23.29 130.95-23.54L130.95-23.54 130.95-23.68Q130.51-24.17 130.31-24.88 130.12-25.59 129.95-26.29 129.78-27 129.51-27.61 129.24-28.22 128.65-28.61L128.65-28.61Q128.51-28.32 128.51-27.93L128.51-27.93Q128.51-27.59 128.58-27.29 128.65-27 128.65-26.66L128.65-26.66Q128.17-26.42 127.95-25.9 127.73-25.39 127.24-25.1L127.24-25.1Q126.85-23.54 126.12-22.14 125.38-20.75 124.58-19.38 123.77-18.02 123.04-16.63 122.31-15.23 121.87-13.72L121.87-13.72Q121.23-13.28 121.01-12.6 120.79-11.91 120.79-11.23L120.79-11.23Q121.23-10.99 121.79-10.96 122.36-10.94 122.89-10.94 123.43-10.94 123.92-10.84 124.41-10.74 124.8-10.35L124.8-10.35Q125.43-10.55 126.19-10.62 126.95-10.69 127.43-11.04L127.43-11.04Q128.41-10.69 129.53-10.69L129.53-10.69Q130.12-10.69 130.68-10.79 131.24-10.89 131.78-11.04L131.78-11.04Q132.22-10.94 132.46-10.72 132.71-10.5 133.2-10.55L133.2-10.55Q133.44-10.74 133.49-10.96 133.54-11.18 133.73-11.38ZM188.03-31.4L188.17-31.4Q187.98-30.76 187.54-30.22L187.54-30.22 186.71-29.2Q186.32-28.71 186.05-28.15 185.78-27.59 185.88-26.86L185.88-26.86Q185.78-26.86 185.63-26.88 185.49-26.9 185.39-26.9L185.39-26.9Q184.61-26.9 184.19-26.54 183.78-26.17 183.1-25.93L183.1-25.93Q183-26.22 182.85-26.49 182.7-26.76 182.41-26.86L182.41-26.86Q181.24-26.61 180.07-26.49 178.9-26.37 177.72-26.17L177.72-26.17Q177.19-26.07 176.65-25.9 176.11-25.73 175.53-25.59L175.53-25.59Q175.23-25.49 174.89-25.51 174.55-25.54 174.21-25.49L174.21-25.49Q173.04-25.44 171.67-25.32 170.3-25.2 169.23-24.56L169.23-24.56Q168.74-24.66 168.2-24.71 167.67-24.76 167.13-24.76L167.13-24.76Q165.96-24.76 164.57-24.54 163.17-24.32 162.1-23.68L162.1-23.68Q161.86-23.78 161.59-23.83 161.32-23.88 160.98-23.88L160.98-23.88Q160.88-23.88 160.83-23.85 160.78-23.83 160.68-23.83L160.68-23.83Q160.63-23.39 160.81-22.97 160.98-22.56 161.42-22.31L161.42-22.31Q161.22-21.78 161.22-21.14L161.22-21.14Q161.22-20.31 161.34-19.48 161.46-18.65 161.46-17.82L161.46-17.82Q161.46-16.89 161.22-16.36L161.22-16.36Q161.71-14.89 161.71-13.23L161.71-13.23Q161.71-12.65 161.64-12.08 161.56-11.52 161.56-10.89L161.56-10.89Q161.56-10.35 161.95-10.03 162.34-9.72 162.34-9.18L162.34-9.18Q162.34-8.98 162.25-8.79L162.25-8.79Q162.93-8.94 163.56-9.2 164.2-9.47 164.88-9.47L164.88-9.47Q165.27-9.47 165.64-9.33 166.01-9.18 166.3-8.94L166.3-8.94Q166.25-8.69 166.23-8.4 166.2-8.11 166.2-7.81L166.2-7.81Q166.2-7.28 166.23-6.81 166.25-6.35 166.3-5.81L166.3-5.81Q165.91-5.13 165.4-4.59 164.88-4.05 164.69-3.22L164.69-3.22Q163.95-3.22 163.39-2.91 162.83-2.59 162.34-2.22 161.86-1.86 161.37-1.54 160.88-1.22 160.29-1.22L160.29-1.22Q159.56-1.22 159.27-1.44 158.97-1.66 158.83-1.9 158.68-2.15 158.56-2.34 158.44-2.54 158.05-2.49L158.05-2.49Q157.95-3.13 157.66-3.69 157.36-4.25 157.05-4.79 156.73-5.32 156.41-5.88 156.09-6.45 155.95-7.03L155.95-7.03Q155.65-8.3 155.7-9.67 155.75-11.04 155.26-12.3L155.26-12.3Q155.36-12.99 155.41-13.7 155.46-14.4 155.46-15.09L155.46-15.09Q155.46-16.46 155.39-17.8 155.31-19.14 155.26-20.56L155.26-20.56Q154.92-21 154.85-21.56 154.78-22.12 154.73-22.66L154.73-22.66Q154.58-22.8 154.41-22.95 154.24-23.1 154.19-23.34L154.19-23.34Q153.8-23.44 153.6-23.44L153.6-23.44Q152.92-23.44 152.46-23.12 151.99-22.8 151.6-22.8L151.6-22.8Q151.21-22.8 150.87-22.9 150.53-23 150.19-23L150.19-23Q149.89-23 149.87-22.88 149.84-22.75 149.65-22.66L149.65-22.66Q149.5-22.56 148.96-22.46 148.43-22.36 147.77-22.29 147.11-22.22 146.5-22.17 145.89-22.12 145.69-22.12L145.69-22.12Q144.91-22.12 144.5-22.44 144.08-22.75 143.5-23.14L143.5-23.14Q143.59-23.44 143.59-23.54L143.59-23.54Q143.59-24.02 143.3-24.34 143.01-24.66 143.01-24.9L143.01-24.9Q143.01-25.44 143.42-25.73 143.84-26.03 143.89-26.66L143.89-26.66Q145.01-27.15 146.18-27.39 147.35-27.64 148.57-27.78 149.79-27.93 150.99-28.13 152.19-28.32 153.36-28.76L153.36-28.76Q153.7-28.71 154.02-28.69 154.34-28.66 154.68-28.66L154.68-28.66Q156.14-28.66 157.58-28.98 159.02-29.3 160.54-29.3L160.54-29.3Q160.93-29.3 161.32-29.25 161.71-29.2 162.1-29.1L162.1-29.1Q164.05-29.39 165.98-29.74 167.91-30.08 169.96-30.32L169.96-30.32Q170.94-30.42 171.89-30.49 172.84-30.57 173.82-30.71L173.82-30.71Q174.16-30.76 174.33-30.88 174.5-31.01 174.5-31.4L174.5-31.4Q174.94-31.2 175.48-31.2L175.48-31.2Q176.31-31.2 177.09-31.49 177.87-31.79 178.7-31.79L178.7-31.79Q178.9-31.79 179.04-31.76 179.19-31.74 179.34-31.74L179.34-31.74Q179.68-31.74 179.7-32.06 179.73-32.37 180.17-32.47L180.17-32.47Q180.51-32.57 181.14-32.62 181.78-32.67 182.49-32.74 183.19-32.81 183.8-32.93 184.41-33.06 184.71-33.3L184.71-33.3 185.05-33.84Q185.93-33.79 186.34-33.08 186.76-32.37 186.81-31.54L186.81-31.54Q187-31.35 187.37-31.37 187.73-31.4 188.03-31.4L188.03-31.4Z" opacity="1" transform="matrix(1,0,0,1,0,0)" fill="#1e55b3" class="undefined-text-0" data-fill-palette-color="primary" id="text-0"></path></svg></g></svg></g><g transform="matrix(1,0,0,1,0,144.8744846527739)"><svg viewBox="0 0 395.52 52.92013407821229" height="52.92013407821229" width="395.52"><g transform="matrix(1,0,0,1,0,0)"><svg width="395.52" viewBox="-1.350000023841858 -36.70000076293945 357.9599914550781 47.900001525878906" height="52.92013407821229" data-palette-color="#ff585f"><path d="M3-0.65L3-0.65Q2.65 0.45 1.43 0.45 0.2 0.45-1.35-0.9L-1.35-0.9Q0.15-5.3 5-15.08 9.85-24.85 11.3-29.7L11.3-29.7Q11.5-30.5 11.5-30.8L11.5-30.8Q11.5-31.55 10.4-33.1L10.4-33.1 10-33.65 10.1-34.3Q14.35-35.5 19.5-35.5L19.5-35.5 22.55-35.3Q23.1-34.55 23.4-33L23.4-33Q24.2-29.2 24.2-13.45L24.2-13.45Q24.2-7.35 25.25-4.85L25.25-4.85Q25.65-3.9 26.05-3.9 26.45-3.9 28.5-4.9L28.5-4.9 29.15-5.2 30.15-3.4Q28.25-1.55 25.93-0.48 23.6 0.6 21.65 0.6L21.65 0.6Q16.6 0.6 16.6-7.25L16.6-7.25 16.6-11.2Q15.3-11.5 12.65-11.5 10-11.5 6.85-11L6.85-11Q4.35-5.2 3-0.65ZM8.45-14.6L16.7-14.6 16.75-20.4Q16.75-28 16.1-30.7L16.1-30.7Q15.7-30.7 15.5-30.6L15.5-30.6Q14.1-26.75 12.88-24.08 11.65-21.4 10.23-18.38 8.8-15.35 8.45-14.6L8.45-14.6ZM31.65 0.15L31.65 0.15 30.7 0.15Q30.7-2.2 32.12-8.85 33.55-15.5 33.55-16.4L33.55-16.4Q33.55-18.05 32.15-19.9L32.15-19.9 31.7-20.5 31.75-21.15Q34.45-21.9 40.4-21.9L40.4-21.9Q41.05-21.05 41.1-18.8L41.1-18.8Q45.45-22.15 48.45-22.15L48.45-22.15Q50.25-22.15 51.32-20.9 52.4-19.65 52.4-17.78 52.4-15.9 51.25-11.3 50.1-6.7 50.1-5.13 50.1-3.55 50.5-3.55L50.5-3.55Q50.8-3.55 52.6-4.5L52.6-4.5 53.2-4.8 54.1-3.05Q53.65-2.65 52.9-2.05 52.15-1.45 50.12-0.43 48.1 0.6 46.5 0.6L46.5 0.6Q42.85 0.6 42.85-3.55L42.85-3.55Q42.85-5.3 43.97-10 45.1-14.7 45.1-16.05 45.1-17.4 44.25-17.4L44.25-17.4Q42.8-17.4 40.7-16.15L40.7-16.15Q40.55-15.3 39.7-11.65L39.7-11.65Q37.95-3.8 37.95-0.55L37.95-0.55Q36.2 0.15 31.65 0.15ZM78.45-4.8L79.4-3.05Q75.15 0.6 71.92 0.6 68.7 0.6 68.2-2.6L68.2-2.6Q66.7-1.1 64.85-0.25 63 0.6 61.6 0.6L61.6 0.6Q59.2 0.6 57.5-1.5 55.8-3.6 55.8-8L55.8-8Q55.8-14.6 58.6-18.38 61.4-22.15 64.92-22.15 68.45-22.15 70.85-20.55L70.85-20.55Q72.4-28.65 72.4-33.3L72.4-33.3 72.15-35.4Q75.9-36.7 79.5-36.7L79.5-36.7Q79.9-35.85 79.9-34.75L79.9-34.75Q79.9-31.1 77.7-19.93 75.5-8.75 75.5-4.75L75.5-4.75Q75.5-3.55 76.05-3.55L76.05-3.55Q76.35-3.55 77.95-4.5L77.95-4.5 78.45-4.8ZM67.35-19.2L67.35-19.2Q65.6-19.2 64.32-15.75 63.05-12.3 63.05-8.93 63.05-5.55 63.52-4.6 64-3.65 64.95-3.65L64.95-3.65Q66.6-3.65 68.2-5L68.2-5Q68.35-7 70.45-18.3L70.45-18.3Q68.75-19.2 67.35-19.2ZM81.79 0.15L81.79 0.15 81.44 0.15Q81.34-0.25 81.34-1.68 81.34-3.1 82.69-9.35 84.04-15.6 84.04-16.5L84.04-16.5Q84.04-18.05 82.64-19.9L82.64-19.9 82.19-20.5 82.24-21.15Q84.94-21.9 90.89-21.9L90.89-21.9Q91.49-20.6 91.49-18.25L91.49-18.25Q92.04-19.15 93.79-20.65 95.54-22.15 97.39-22.15L97.39-22.15Q100.09-22.15 100.09-17.45L100.09-17.45Q99.84-17.15 99.42-16.68 98.99-16.2 97.72-15.35 96.44-14.5 95.24-14.3L95.24-14.3Q95.19-14.3 94.39-15.65 93.59-17 93.19-17L93.19-17Q91.94-16.55 90.99-15.5L90.99-15.5Q88.69-5.15 88.69-2.1L88.69-2.1Q88.69-1 88.74-0.55L88.74-0.55Q86.99 0.15 81.79 0.15ZM105.99 0.6L105.99 0.6Q102.54 0.6 100.59-1.83 98.64-4.25 98.64-8.6L98.64-8.6Q98.64-14.15 101.62-18.15 104.59-22.15 109.84-22.15L109.84-22.15 111.64-22.05Q112.49-22.5 113.54-22.5L113.54-22.5Q117.49-22.5 117.49-15.05L117.49-15.05Q119.54-15.15 121.64-15.6L121.64-15.6 122.44-15.8 122.74-13.85Q121.09-13.15 118.29-12.6L118.29-12.6 117.29-12.4Q116.34-7.15 113.44-3.28 110.54 0.6 105.99 0.6ZM108.69-3.7L108.69-3.7Q110.79-3.7 112.47-6.4 114.14-9.1 114.79-12.1L114.79-12.1Q109.44-12.1 109.44-16.1L109.44-16.1Q109.44-17.7 110.09-19.1L110.09-19.1 110.34-19.6Q110.14-19.7 109.84-19.7 109.54-19.7 109.39-19.6L109.39-19.6Q108.14-18.8 107.04-15.85 105.94-12.9 105.94-9.1L105.94-9.1Q105.94-3.7 108.69-3.7ZM129.79-19.05Q129.79-16.95 128.44-11.83 127.09-6.7 127.09-5.13 127.09-3.55 127.54-3.55L127.54-3.55Q127.84-3.55 129.84-4.5L129.84-4.5 130.44-4.8 131.29-3.05Q130.84-2.65 130.09-2.05 129.34-1.45 127.29-0.43 125.24 0.6 123.49 0.6 121.74 0.6 120.74-0.48 119.74-1.55 119.74-3.38 119.74-5.2 120.99-9.88 122.24-14.55 122.24-15.95L122.24-15.95Q122.24-18.05 120.94-19.9L120.94-19.9 120.49-20.5 120.54-21.15Q123.19-21.9 129.14-21.9L129.14-21.9Q129.79-21.15 129.79-19.05ZM124.09-27.38Q123.09-28.35 123.09-30 123.09-31.65 124.46-32.9 125.84-34.15 127.64-34.15 129.44-34.15 130.44-33.15 131.44-32.15 131.44-30.53 131.44-28.9 130.01-27.65 128.59-26.4 126.84-26.4 125.09-26.4 124.09-27.38ZM155.79-4.8L156.74-3.05Q152.49 0.6 149.26 0.6 146.04 0.6 145.54-2.6L145.54-2.6Q144.04-1.1 142.19-0.25 140.34 0.6 138.94 0.6L138.94 0.6Q136.54 0.6 134.84-1.5 133.14-3.6 133.14-8L133.14-8Q133.14-14.6 135.94-18.38 138.74-22.15 142.26-22.15 145.79-22.15 148.19-20.55L148.19-20.55Q149.74-28.65 149.74-33.3L149.74-33.3 149.49-35.4Q153.24-36.7 156.84-36.7L156.84-36.7Q157.24-35.85 157.24-34.75L157.24-34.75Q157.24-31.1 155.04-19.93 152.84-8.75 152.84-4.75L152.84-4.75Q152.84-3.55 153.39-3.55L153.39-3.55Q153.69-3.55 155.29-4.5L155.29-4.5 155.79-4.8ZM144.69-19.2L144.69-19.2Q142.94-19.2 141.66-15.75 140.39-12.3 140.39-8.93 140.39-5.55 140.86-4.6 141.34-3.65 142.29-3.65L142.29-3.65Q143.94-3.65 145.54-5L145.54-5Q145.69-7 147.79-18.3L147.79-18.3Q146.09-19.2 144.69-19.2ZM181.98 0.6L181.98 0.6Q179.08 0.6 175.98-0.35L175.98-0.35Q173.38 0.3 171.46 0.3 169.53 0.3 168.83 0.2L168.83 0.2Q169.18-2.75 171.86-14.78 174.53-26.8 174.53-28.43 174.53-30.05 173.86-31.25 173.18-32.45 172.53-33L172.53-33 171.83-33.55 171.98-34.3Q173.28-34.65 177.31-35.08 181.33-35.5 184.33-35.5L184.33-35.5Q191.28-35.5 194.86-32.43 198.43-29.35 198.43-22.45L198.43-22.45Q198.43-16.8 196.56-11.63 194.68-6.45 190.83-2.93 186.98 0.6 181.98 0.6ZM185.53-32.35L185.53-32.35Q184.23-32.35 182.58-32.05L182.58-32.05Q182.08-26.75 179.76-16.57 177.43-6.4 177.03-3.6L177.03-3.6Q178.23-3 180.33-3 182.43-3 184.31-4.67 186.18-6.35 187.33-8.85 188.48-11.35 189.33-14.45L189.33-14.45Q190.78-20 190.78-24.55 190.78-29.1 189.58-30.73 188.38-32.35 185.53-32.35ZM199.98-8.65L199.98-8.65Q199.98-14.9 203.75-18.53 207.53-22.15 212.33-22.15L212.33-22.15Q215.28-22.15 217.18-20.7 219.08-19.25 219.08-16.82 219.08-14.4 217.85-12.75 216.63-11.1 214.88-10.2L214.88-10.2Q211.33-8.45 208.38-8L208.38-8 207.18-7.85Q207.53-3.15 211.03-3.15L211.03-3.15Q212.23-3.15 213.58-3.75 214.93-4.35 215.68-4.95L215.68-4.95 216.43-5.55 217.63-3.95Q217.23-3.4 216.03-2.5 214.83-1.6 213.78-1L213.78-1Q210.88 0.6 207.43 0.6 203.98 0.6 201.98-1.85 199.98-4.3 199.98-8.65ZM207.13-10.3Q209.68-10.75 211.18-12.45 212.68-14.15 212.68-16.85 212.68-19.55 211.08-19.55L211.08-19.55Q209.18-19.55 208.15-16.32 207.13-13.1 207.13-10.3L207.13-10.3ZM225-22.15Q227.18-22.15 228.25-21.25 229.33-20.35 229.33-17.55L229.33-17.55Q229.33-16.05 228.43-11.43 227.53-6.8 227.53-5.8L227.53-5.8Q227.53-3.8 228.33-3.8L228.33-3.8Q230.23-3.8 232.5-6.63 234.78-9.45 234.88-11.35L234.88-11.35 231.48-15.15Q231.68-17.3 232.53-19.05 233.38-20.8 234.13-21.5L234.13-21.5 234.83-22.15Q236.98-22.15 238.08-21 239.18-19.85 239.18-18.3L239.18-18.3Q239.18-14.35 237.23-9.95 235.28-5.55 232.03-2.48 228.78 0.6 225.43 0.6L225.43 0.6Q223.33 0.6 222.2-0.7 221.08-2 221.08-4.13 221.08-6.25 221.4-9.85 221.73-13.45 221.73-17L221.73-17Q221.73-17.8 221.15-18.9 220.58-20 219.98-20.65L219.98-20.65 220.13-21.25Q222.83-22.15 225-22.15ZM239.62-8.65L239.62-8.65Q239.62-14.9 243.4-18.53 247.17-22.15 251.97-22.15L251.97-22.15Q254.92-22.15 256.82-20.7 258.72-19.25 258.72-16.82 258.72-14.4 257.5-12.75 256.27-11.1 254.52-10.2L254.52-10.2Q250.97-8.45 248.02-8L248.02-8 246.82-7.85Q247.17-3.15 250.67-3.15L250.67-3.15Q251.87-3.15 253.22-3.75 254.57-4.35 255.32-4.95L255.32-4.95 256.07-5.55 257.27-3.95Q256.87-3.4 255.67-2.5 254.47-1.6 253.42-1L253.42-1Q250.52 0.6 247.07 0.6 243.62 0.6 241.62-1.85 239.62-4.3 239.62-8.65ZM246.77-10.3Q249.32-10.75 250.82-12.45 252.32-14.15 252.32-16.85 252.32-19.55 250.72-19.55L250.72-19.55Q248.82-19.55 247.8-16.32 246.77-13.1 246.77-10.3L246.77-10.3ZM263.65 0.6Q261.92 0.6 260.8-0.55 259.67-1.7 259.67-3.78 259.67-5.85 262.15-17.03 264.62-28.2 264.62-33.15L264.62-33.15 264.32-35.35Q268.22-36.7 271.62-36.7L271.62-36.7Q272.12-36 272.12-34.25L272.12-34.25Q272.12-30.25 269.6-18.78 267.07-7.3 267.07-5.43 267.07-3.55 267.52-3.55L267.52-3.55 271.02-4.8 271.92-3.05Q270.22-1.7 267.8-0.55 265.37 0.6 263.65 0.6ZM280.07 0.6L280.07 0.6Q276.62 0.6 274.67-1.83 272.72-4.25 272.72-8.6L272.72-8.6Q272.72-14.15 275.69-18.15 278.67-22.15 283.92-22.15L283.92-22.15 285.72-22.05Q286.57-22.5 287.62-22.5L287.62-22.5Q291.57-22.5 291.57-15.05L291.57-15.05Q293.62-15.15 295.72-15.6L295.72-15.6 296.52-15.8 296.82-13.85Q295.17-13.15 292.37-12.6L292.37-12.6 291.37-12.4Q290.42-7.15 287.52-3.28 284.62 0.6 280.07 0.6ZM282.77-3.7L282.77-3.7Q284.87-3.7 286.54-6.4 288.22-9.1 288.87-12.1L288.87-12.1Q283.52-12.1 283.52-16.1L283.52-16.1Q283.52-17.7 284.17-19.1L284.17-19.1 284.42-19.6Q284.22-19.7 283.92-19.7 283.62-19.7 283.47-19.6L283.47-19.6Q282.22-18.8 281.12-15.85 280.02-12.9 280.02-9.1L280.02-9.1Q280.02-3.7 282.77-3.7ZM292.07 11.2L292.07 11.2Q291.82 10.6 291.82 8.55 291.82 6.5 293.77-2.48 295.72-11.45 295.72-16.3L295.72-16.3Q295.72-17.25 295.27-18.32 294.82-19.4 294.32-20L294.32-20 293.87-20.55 293.92-21.2Q296.27-21.95 302.22-21.95L302.22-21.95Q302.77-20.9 302.92-19L302.92-19Q306.77-22.15 309.34-22.15 311.92-22.15 313.49-20 315.07-17.85 315.07-13.7L315.07-13.7Q315.07-6.45 312.42-2.93 309.77 0.6 305.72 0.6L305.72 0.6Q303.62 0.6 302.22 0L302.22 0 301.72-0.2 302.07-2.15Q302.52-2.05 303.12-2.05L303.12-2.05Q304.42-2.05 305.39-3.25 306.37-4.45 306.87-6.3L306.87-6.3Q307.87-10 307.87-13.15L307.87-13.15Q307.87-17.65 306.02-17.65L306.02-17.65Q304.57-17.65 302.92-16.5L302.92-16.5Q302.72-13 300.87-4.25 299.02 4.5 299.02 9.85L299.02 9.85Q296.32 10.95 292.07 11.2ZM317.16-8.65L317.16-8.65Q317.16-14.9 320.94-18.53 324.71-22.15 329.51-22.15L329.51-22.15Q332.46-22.15 334.36-20.7 336.26-19.25 336.26-16.82 336.26-14.4 335.04-12.75 333.81-11.1 332.06-10.2L332.06-10.2Q328.51-8.45 325.56-8L325.56-8 324.36-7.85Q324.71-3.15 328.21-3.15L328.21-3.15Q329.41-3.15 330.76-3.75 332.11-4.35 332.86-4.95L332.86-4.95 333.61-5.55 334.81-3.95Q334.41-3.4 333.21-2.5 332.01-1.6 330.96-1L330.96-1Q328.06 0.6 324.61 0.6 321.16 0.6 319.16-1.85 317.16-4.3 317.16-8.65ZM324.31-10.3Q326.86-10.75 328.36-12.45 329.86-14.15 329.86-16.85 329.86-19.55 328.26-19.55L328.26-19.55Q326.36-19.55 325.34-16.32 324.31-13.1 324.31-10.3L324.31-10.3ZM338.31 0.15L338.31 0.15 337.96 0.15Q337.86-0.25 337.86-1.68 337.86-3.1 339.21-9.35 340.56-15.6 340.56-16.5L340.56-16.5Q340.56-18.05 339.16-19.9L339.16-19.9 338.71-20.5 338.76-21.15Q341.46-21.9 347.41-21.9L347.41-21.9Q348.01-20.6 348.01-18.25L348.01-18.25Q348.56-19.15 350.31-20.65 352.06-22.15 353.91-22.15L353.91-22.15Q356.61-22.15 356.61-17.45L356.61-17.45Q356.36-17.15 355.94-16.68 355.51-16.2 354.24-15.35 352.96-14.5 351.76-14.3L351.76-14.3Q351.71-14.3 350.91-15.65 350.11-17 349.71-17L349.71-17Q348.46-16.55 347.51-15.5L347.51-15.5Q345.21-5.15 345.21-2.1L345.21-2.1Q345.21-1 345.26-0.55L345.26-0.55Q343.51 0.15 338.31 0.15Z" opacity="1" transform="matrix(1,0,0,1,0,0)" fill="#ff585f" class="undefined-text-1" data-fill-palette-color="secondary" id="text-1"></path></svg></g></svg></g></svg></g></svg></g><g transform="matrix(1,0,0,1,75.54432,0)"><svg viewBox="0 0 244.43135999999998 244.43135999999993" height="244.43135999999993" width="244.43135999999998"><g><svg></svg></g><g id="icon-0"><svg viewBox="0 0 244.43135999999998 244.43135999999993" height="244.43135999999993" width="244.43135999999998"><g><path xmlns="http://www.w3.org/2000/svg" d="M73.329 244.431c-40.499 0-73.329-32.831-73.329-73.329v-97.773c0-40.499 32.831-73.329 73.329-73.329h97.773c40.499 0 73.329 32.831 73.329 73.329v97.773c0 40.499-32.831 73.329-73.329 73.329z" fill="#ff585f" fill-rule="nonzero" stroke="none" stroke-width="1" stroke-linecap="butt" stroke-linejoin="miter" stroke-miterlimit="10" stroke-dasharray="" stroke-dashoffset="0" font-family="none" font-weight="none" font-size="none" text-anchor="none" style="mix-blend-mode: normal" data-fill-palette-color="accent"></path></g><g transform="matrix(1,0,0,1,84.3288192,59.050581394396914)"><svg viewBox="0 0 75.77372159999999 126.3301972112061" height="126.3301972112061" width="75.77372159999999"><g><svg xmlns="http://www.w3.org/2000/svg" data-name="Layer 1" viewBox="28.259998321533203 13.75 43.47999954223633 72.48999786376953" x="0" y="0" height="126.3301972112061" width="75.77372159999999" class="icon-s-0" data-fill-palette-color="quaternary" id="s-0"><path d="M67.36 13.75H32.64a4.39 4.39 0 0 0-4.38 4.38V81.86a4.39 4.39 0 0 0 4.38 4.38H67.36a4.39 4.39 0 0 0 4.38-4.38V18.14A4.39 4.39 0 0 0 67.36 13.75Zm1.38 68.11a1.38 1.38 0 0 1-1.38 1.38H32.64a1.38 1.38 0 0 1-1.38-1.38V18.14a1.38 1.38 0 0 1 1.38-1.38H67.36a1.38 1.38 0 0 1 1.38 1.38V81.86Z" fill="#ffffff" data-fill-palette-color="quaternary"></path><path d="M65.41 24.28H34.59a0.75 0.75 0 0 0-0.75 0.75V74.58a0.75 0.75 0 0 0 0.75 0.75H65.41a0.75 0.75 0 0 0 0.75-0.75V25A0.75 0.75 0 0 0 65.41 24.28ZM64.66 73.83H35.34V25.78H64.66V73.83Z" fill="#ffffff" data-fill-palette-color="quaternary"></path><rect x="45.32" y="19.55" width="9.42" height="1.5" fill="#ffffff" data-fill-palette-color="quaternary"></rect><rect x="39.05" y="77.55" width="2.75" height="1.5" fill="#ffffff" data-fill-palette-color="quaternary"></rect><rect x="48.3" y="77.55" width="2.75" height="1.5" fill="#ffffff" data-fill-palette-color="quaternary"></rect><rect x="57.55" y="77.55" width="2.75" height="1.5" fill="#ffffff" data-fill-palette-color="quaternary"></rect></svg></g></svg></g></svg></g></svg></g><g></g></svg></g><defs></defs></svg><rect width="208.07303920298975" height="247.2" fill="none" stroke="none" visibility="hidden"></rect></g></svg></g></svg>